<svg width="32" height="32" viewBox="0 0 32 32" fill="none" xmlns="http://www.w3.org/2000/svg">
<g clip-path="url(#clip0_9_7018)">
<path d="M32 0H0V32H32V0Z" fill="#EE3D57"/>
<path d="M22.0233 10.1646C21.0821 10.1646 20.3292 10.3529 19.5762 10.7293V5.27051H16.5645V15.4352C16.5645 18.447 19.0115 20.894 22.0233 20.894C25.035 20.894 27.4821 18.447 27.4821 15.4352C27.4821 12.6117 25.035 10.1646 22.0233 10.1646ZM22.0233 17.8823C20.7056 17.8823 19.5762 16.7529 19.5762 15.4352C19.5762 14.3058 20.7056 13.1764 22.0233 13.1764C23.3409 13.1764 24.4703 14.3058 24.4703 15.6234C24.4703 16.9411 23.3409 17.8823 22.0233 17.8823Z" fill="white"/>
<path d="M15.247 18.2592V18.0709C15.0588 17.5062 14.8705 16.9415 14.8705 16.1886V9.41211H11.8588V14.6827C11.294 14.3062 10.7293 14.3062 9.9764 14.3062C6.96464 14.3062 4.51758 16.7533 4.51758 19.765C4.51758 22.7768 6.96464 25.2239 9.9764 25.2239C11.8588 25.2239 13.5529 24.2827 14.494 22.965C15.4352 23.9062 16.5646 24.8474 17.8823 25.2239L19.3882 22.5886C17.3176 21.8356 15.8117 20.1415 15.247 18.2592ZM9.9764 22.0239C8.65876 22.0239 7.52934 20.8945 7.52934 19.5768C7.52934 18.2592 8.65876 17.1298 9.9764 17.1298C11.294 17.1298 12.4235 18.2592 12.4235 19.5768C12.4235 21.0827 11.294 22.0239 9.9764 22.0239Z" fill="white"/>
</g>
<defs>
<clipPath id="clip0_9_7018">
<rect width="32" height="32" fill="white"/>
</clipPath>
</defs>
</svg>
